# xmcd
# 
# Track frame offsets:
#     187
#     30242
#     43145
#     68060
#     90600
#     106880
#     129990
#     147372
# 
# Disc length: 2275
# 
# Revision: 1
# Processed by: cddbd v1.5.2PL0 Copyright (c) Steve Scherf et al.
# Submitted via: BonkEnc v1.0.6
# 
DISCID=6308e108
DTITLE=渡辺貞夫 - Bird of Paradise
DYEAR=1977
DGENRE=Jazz
TTITLE0=Bird of Paradise
TTITLE1=Donna Lee
TTITLE2=Embraceable You
TTITLE3=Star Eyes
TTITLE4=Dexterity
TTITLE5=If I Should Lose You
TTITLE6=Yardbird Suite
TTITLE7=K.C. Blues
EXTD=
EXTT0=
EXTT1=
EXTT2=
EXTT3=
EXTT4=
EXTT5=
EXTT6=
EXTT7=
PLAYORDER=
